STARTFONT 2.1
COMMENT $Xorg: charI08.bdf,v 1.3 2000/08/17 19:42:53 cpqbld Exp $
COMMENT  
COMMENT  Copyright 1988 Bitstream, Inc., Cambridge, Massachusetts, USA
COMMENT  Bitstream and Charter are registered trademarks of Bitstream, Inc.
COMMENT  
COMMENT  The names "Bitstream" and "Charter" are registered trademarks of
COMMENT  Bitstream, Inc.  Permission to use these trademarks is hereby
COMMENT  granted only in association with the images described in this file.
COMMENT  
COMMENT  Permission to use, copy, modify, and distribute this software and
COMMENT  its documentation for any purpose and without fee is hereby
COMMENT  granted, provided that the above copyright notice appear in all
COMMENT  copies and that both that copyright notice and this permission
COMMENT  notice appear in supporting documentation, and that the name of
COMMENT  Bitstream not be used in advertising or publicity pertaining to
COMMENT  distribution of the software without specific, written prior
COMMENT  permission.  Bitstream makes no representations about the
COMMENT  suitability of this software for any purpose.  It is provided "as
COMMENT  is" without express or implied warranty.
COMMENT  
COMMENT  BITSTREAM DISCLAIMS ALL WARRANTIES WITH REGARD TO THIS SOFTWARE,
COMMENT  INCLUDING ALL IMPLIED WARRANTIES OF MERCHANTABILITY AND FITNESS, IN
COMMENT  NO EVENT SHALL BITSTREAM BE LIABLE FOR ANY SPECIAL, INDIRECT OR
COMMENT  CONSEQUENTIAL DAMAGES OR ANY DAMAGES WHATSOEVER RESULTING FROM LOSS
COMMENT  OF USE, DATA OR PROFITS, WHETHER IN AN ACTION OF CONTRACT,
COMMENT  NEGLIGENCE OR OTHER TORTIOUS ACTION, ARISING OUT OF OR IN
COMMENT  CONNECTION WITH THE USE OR PERFORMANCE OF THIS SOFTWARE.
COMMENT  
COMMENT  
COMMENT Fontware CVTBDF v1.0
FONT -Bitstream-Charter-Medium-I-Normal--11-80-100-100-P-60-ISO8859-1
SIZE 8 100 100
FONTBOUNDINGBOX 13 14 -2 -3
STARTPROPERTIES 22
COMMENT Begin LogicalFontDescription
FONTNAME_REGISTRY ""
FAMILY_NAME "Charter"
FOUNDRY "Bitstream"
WEIGHT_NAME "Medium"

STARTCHAR space
ENCODING 32
SWIDTH 278 0
DWIDTH 3 0
BBX 1 1 0 0
BITMAP
00
ENDCHAR
STARTCHAR exclam
ENCODING 33
SWIDTH 338 0
DWIDTH 4 0
BBX 3 8 1 0
BITMAP
20
60
40
40
40
40
00
c0
ENDCHAR
STARTCHAR quotedbl
ENCODING 34
SWIDTH 331 0
DWIDTH 5 0
BBX 3 3 1 4
BITMAP
a0
a0
a0
ENDCHAR
STARTCHAR numbersign
ENCODING 35
SWIDTH 745 0
DWIDTH 8 0
BBX 7 8 0 -1
BITMAP
14
14
7e
28
fe
48
50
50
ENDCHAR
STARTCHAR dollar
ENCODING 36
SWIDTH 556 0
DWIDTH 6 0
BBX 5 9 0 -1
BITMAP
38
58
60
60
30
a8
b0
60
40
ENDCHAR
STARTCHAR percent
ENCODING 37
SWIDTH 852 0
DWIDTH 9 0
BBX 9 8 0 0
BITMAP
2100
5200
9400
ab00
6a80
1480
2500
4200
ENDCHAR
STARTCHAR ampersand
ENCODING 38
SWIDTH 704 0
DWIDTH 8 0
BBX 7 8 0 0
BITMAP
30
48
48
50
66
94
98
66
ENDCHAR
STARTCHAR quoteright
ENCODING 39
SWIDTH 201 0
DWIDTH 3 0
BBX 2 3 1 4
BITMAP
c0
40
80
ENDCHAR
STARTCHAR parenleft
ENCODING 40
SWIDTH 419 0
DWIDTH 5 0
BBX 4 10 1 -2
BITMAP
10
20
40
40
80
80
80
80
80
40
ENDCHAR
STARTCHAR parenright
ENCODING 41
SWIDTH 419 0
DWIDTH 4 0
BBX 4 10 -1 -2
BITMAP
20
10
10
10
10
10
20
20
40
80
ENDCHAR
STARTCHAR asterisk
ENCODING 42
SWIDTH 500 0
DWIDTH 6 0
BBX 5 4 1 4
BITMAP
20
f8
20
d0
ENDCHAR
STARTCHAR plus
ENCODING 43
SWIDTH 833 0
DWIDTH 9 0
BBX 7 7 1 0
BITMAP
10
10
10
fe
10
10
10
ENDCHAR
STARTCHAR comma
ENCODING 44
SWIDTH 278 0
DWIDTH 3 0
BBX 2 3 -1 -2
BITMAP
40
40
c0
ENDCHAR
STARTCHAR hyphen
ENCODING 45
SWIDTH 319 0
DWIDTH 4 0
BBX 3 1 0 2
BITMAP
e0
ENDCHAR
STARTCHAR period
ENCODING 46
SWIDTH 278 0
DWIDTH 3 0
BBX 1 1 0 0
BITMAP
80
ENDCHAR
STARTCHAR slash
ENCODING 47
SWIDTH 481 0
DWIDTH 5 0
BBX 7 9 -1 -1
BITMAP
02
04
08
08
10
20
20
40
80
ENDCHAR
STARTCHAR zero
ENCODING 48
SWIDTH 556 0
DWIDTH 6 0
BBX 5 8 1 0
BITMAP
30
48
48
88
88
90
90
60
ENDCHAR
STARTCHAR one
ENCODING 49
SWIDTH 556 0
DWIDTH 6 0
BBX 4 8 1 0
BITMAP
30
70
10
20
20
20
20
f0
ENDCHAR
STARTCHAR two
ENCODING 50
SWIDTH 556 0
DWIDTH 6 0
BBX 5 8 0 0
BITMAP
30
48
48
08
10
20
48
f0
ENDCHAR
STARTCHAR three
ENCODING 51
SWIDTH 556 0
DWIDTH 6 0
BBX 6 8 0 0
BITMAP
38
44
0c
30
08
0c
88
70
ENDCHAR
STARTCHAR four
ENCODING 52
SWIDTH 556 0
DWIDTH 6 0
BBX 6 8 0 0
BITMAP
08
18
28
48
48
fc
10
10
ENDCHAR
STARTCHAR five
ENCODING 53
SWIDTH 556 0
DWIDTH 6 0
BBX 6 8 0 0
BITMAP
3c
40
40
70
08
08
90
e0
ENDCHAR
STARTCHAR six
ENCODING 54
SWIDTH 556 0
DWIDTH 6 0
BBX 5 7 0 0
BITMAP
38
40
f0
c8
88
90
60
ENDCHAR
STARTCHAR seven
ENCODING 55
SWIDTH 556 0
DWIDTH 6 0
BBX 7 8 0 0
BITMAP
7e
44
08
08
10
20
40
c0
ENDCHAR
STARTCHAR eight
ENCODING 56
SWIDTH 556 0
DWIDTH 6 0
BBX 5 8 0 0
BITMAP
30
48
48
70
50
88
90
60
ENDCHAR
STARTCHAR nine
ENCODING 57
SWIDTH 556 0
DWIDTH 6 0
BBX 5 8 1 0
BITMAP
30
48
88
98
70
10
20
c0
ENDCHAR
STARTCHAR colon
ENCODING 58
SWIDTH 319 0
DWIDTH 4 0
BBX 2 5 1 0
BITMAP
40
00
00
00
80
ENDCHAR
STARTCHAR semicolon
ENCODING 59
SWIDTH 319 0
DWIDTH 4 0
BBX 3 7 0 -2
BITMAP
60
00
00
00
40
40
80
ENDCHAR
STARTCHAR less
ENCODING 60
SWIDTH 833 0
DWIDTH 9 0
BBX 6 6 1 0
BITMAP
04
38
c0
c0
38
04
ENDCHAR
STARTCHAR equal
ENCODING 61
SWIDTH 833 0
DWIDTH 9 0
BBX 6 3 2 1
BITMAP
fc
00
fc
ENDCHAR
STARTCHAR greater
ENCODING 62
SWIDTH 833 0
DWIDTH 9 0
BBX 6 6 2 0
BITMAP
80
70
0c
0c
70
80
ENDCHAR
STARTCHAR question
ENCODING 63
SWIDTH 486 0
DWIDTH 5 0
BBX 4 8 1 0
BITMAP
60
90
10
20
40
80
00
80
ENDCHAR
STARTCHAR at
ENCODING 64
SWIDTH 942 0
DWIDTH 10 0
BBX 9 9 1 -2
BITMAP
1e00
6100
4e80
9480
a480
a500
9e00
4300
3c00
ENDCHAR
STARTCHAR A
ENCODING 65
SWIDTH 606 0
DWIDTH 7 0
BBX 8 8 -1 0
BITMAP
0400
0c00
1400
1200
3e00
2200
4200
c700
ENDCHAR
STARTCHAR B
ENCODING 66
SWIDTH 588 0
DWIDTH 7 0
BBX 6 8 0 0
BITMAP
78
24
2c
38
44
44
48
f0
ENDCHAR
STARTCHAR C
ENCODING 67
SWIDTH 604 0
DWIDTH 7 0
BBX 7 8 0 0
BITMAP
1e
22
40
80
80
80
44
38
ENDCHAR
STARTCHAR D
ENCODING 68
SWIDTH 671 0
DWIDTH 8 0
BBX 7 8 0 0
BITMAP
78
24
22
22
42
44
48
f0
ENDCHAR
STARTCHAR E
ENCODING 69
SWIDTH 546 0
DWIDTH 6 0
BBX 6 8 0 0
BITMAP
7c
24
28
38
48
40
48
f8
ENDCHAR
STARTCHAR F
ENCODING 70
SWIDTH 509 0
DWIDTH 5 0
BBX 6 8 0 0
BITMAP
7c
24
28
38
48
40
40
e0
ENDCHAR
STARTCHAR G
ENCODING 71
SWIDTH 664 0
DWIDTH 7 0
BBX 7 8 0 0
BITMAP
1e
62
40
80
8e
84
44
38
ENDCHAR
STARTCHAR H
ENCODING 72
SWIDTH 712 0
DWIDTH 8 0
BBX 9 8 0 0
BITMAP
7380
2100
2100
3f00
4200
4200
4200
e700
ENDCHAR
STARTCHAR I
ENCODING 73
SWIDTH 313 0
DWIDTH 4 0
BBX 4 8 0 0
BITMAP
70
20
20
20
40
40
40
e0
ENDCHAR
STARTCHAR J
ENCODING 74
SWIDTH 447 0
DWIDTH 5 0
BBX 6 8 -1 0
BITMAP
1c
08
08
08
10
10
90
e0
ENDCHAR
STARTCHAR K
ENCODING 75
SWIDTH 625 0
DWIDTH 7 0
BBX 8 8 0 0
BITMAP
7700
2200
2c00
3000
5000
4800
4400
e600
ENDCHAR
STARTCHAR L
ENCODING 76
SWIDTH 498 0
DWIDTH 6 0
BBX 5 8 0 0
BITMAP
70
20
20
40
40
40
48
f8
ENDCHAR
STARTCHAR M
ENCODING 77
SWIDTH 839 0
DWIDTH 9 0
BBX 10 8 0 0
BITMAP
70c0
3180
3180
5280
5500
5500
4900
cb80
ENDCHAR
STARTCHAR N
ENCODING 78
SWIDTH 683 0
DWIDTH 7 0
BBX 8 8 0 0
BITMAP
6300
2200
3200
5200
4a00
4a00
4400
c400
ENDCHAR
STARTCHAR O
ENCODING 79
SWIDTH 708 0
DWIDTH 8 0
BBX 8 8 0 0
BITMAP
1c00
2200
4100
8100
8100
8200
4400
3800
ENDCHAR
STARTCHAR P
ENCODING 80
SWIDTH 542 0
DWIDTH 6 0
BBX 6 8 0 0
BITMAP
78
24
24
48
70
40
40
c0
ENDCHAR
STARTCHAR Q
ENCODING 81
SWIDTH 708 0
DWIDTH 8 0
BBX 8 10 0 -2
BITMAP
1800
6400
4200
8200
8200
8400
4c00
3800
0800
0700
ENDCHAR
STARTCHAR R
ENCODING 82
SWIDTH 602 0
DWIDTH 7 0
BBX 7 8 0 0
BITMAP
78
24
24
48
70
48
48
e6
ENDCHAR
STARTCHAR S
ENCODING 83
SWIDTH 537 0
DWIDTH 6 0
BBX 6 8 0 0
BITMAP
3c
44
40
60
18
88
98
60
ENDCHAR
STARTCHAR T
ENCODING 84
SWIDTH 565 0
DWIDTH 6 0
BBX 7 8 0 0
BITMAP
fe
92
10
30
20
20
20
70
ENDCHAR
STARTCHAR U
ENCODING 85
SWIDTH 664 0
DWIDTH 8 0
BBX 7 8 1 0
BITMAP
e6
44
44
84
84
88
88
70
ENDCHAR
STARTCHAR V
ENCODING 86
SWIDTH 590 0
DWIDTH 6 0
BBX 7 8 0 0
BITMAP
c6
44
44
48
48
50
30
20
ENDCHAR
STARTCHAR W
ENCODING 87
SWIDTH 898 0
DWIDTH 10 0
BBX 10 8 1 0
BITMAP
c4c0
4c80
4c80
5500
5500
6600
6600
4400
ENDCHAR
STARTCHAR X
ENCODING 88
SWIDTH 569 0
DWIDTH 6 0
BBX 8 8 -1 0
BITMAP
3300
1200
1400
1800
1800
2800
4400
ee00
ENDCHAR
STARTCHAR Y
ENCODING 89
SWIDTH 563 0
DWIDTH 6 0
BBX 7 8 0 0
BITMAP
ee
44
48
30
20
20
20
70
ENDCHAR
STARTCHAR Z
ENCODING 90
SWIDTH 556 0
DWIDTH 7 0
BBX 7 8 0 0
BITMAP
3e
44
08
18
30
20
44
fc
ENDCHAR
STARTCHAR bracketleft
ENCODING 91
SWIDTH 421 0
DWIDTH 5 0
BBX 4 9 1 -2
BITMAP
30
40
40
40
40
40
80
80
c0
ENDCHAR
STARTCHAR backslash
ENCODING 92
SWIDTH 481 0
DWIDTH 5 0
BBX 5 9 0 -1
BITMAP
80
40
40
20
20
20
10
10
08
ENDCHAR
STARTCHAR bracketright
ENCODING 93
SWIDTH 421 0
DWIDTH 5 0
BBX 4 9 0 -2
BITMAP
30
10
10
20
20
20
20
20
c0
ENDCHAR
STARTCHAR asciicircum
ENCODING 94
SWIDTH 1000 0
DWIDTH 11 0
BBX 7 3 2 4
BITMAP
38
44
82
ENDCHAR
STARTCHAR underscore
ENCODING 95
SWIDTH 500 0
DWIDTH 6 0
BBX 6 1 0 -3
BITMAP
fc
ENDCHAR
STARTCHAR quoteleft
ENCODING 96
SWIDTH 201 0
DWIDTH 3 0
BBX 2 3 1 4
BITMAP
40
80
c0
ENDCHAR
STARTCHAR a
ENCODING 97
SWIDTH 525 0
DWIDTH 6 0
BBX 5 5 0 0
BITMAP
38
48
88
90
78
ENDCHAR
STARTCHAR b
ENCODING 98
SWIDTH 507 0
DWIDTH 6 0
BBX 5 8 0 0
BITMAP
c0
40
40
70
48
88
90
60
ENDCHAR
STARTCHAR c
ENCODING 99
SWIDTH 394 0
DWIDTH 4 0
BBX 4 5 0 0
BITMAP
30
50
80
90
60
ENDCHAR
STARTCHAR d
ENCODING 100
SWIDTH 523 0
DWIDTH 6 0
BBX 6 8 0 0
BITMAP
0c
04
08
38
48
88
90
6c
ENDCHAR
STARTCHAR e
ENCODING 101
SWIDTH 424 0
DWIDTH 5 0
BBX 4 5 0 0
BITMAP
20
70
c0
90
60
ENDCHAR
STARTCHAR f
ENCODING 102
SWIDTH 292 0
DWIDTH 3 0
BBX 6 11 -2 -3
BITMAP
0c
14
10
38
10
20
20
20
20
40
c0
ENDCHAR
STARTCHAR g
ENCODING 103
SWIDTH 481 0
DWIDTH 6 0
BBX 6 8 0 -3
BITMAP
34
48
48
30
20
d8
88
70
ENDCHAR
STARTCHAR h
ENCODING 104
SWIDTH 551 0
DWIDTH 6 0
BBX 6 8 0 0
BITMAP
60
20
40
58
68
48
50
8c
ENDCHAR
STARTCHAR i
ENCODING 105
SWIDTH 287 0
DWIDTH 3 0
BBX 2 8 1 0
BITMAP
40
00
00
c0
80
80
80
c0
ENDCHAR
STARTCHAR j
ENCODING 106
SWIDTH 269 0
DWIDTH 3 0
BBX 4 11 -1 -3
BITMAP
10
00
00
30
10
20
20
20
20
40
c0
ENDCHAR
STARTCHAR k
ENCODING 107
SWIDTH 514 0
DWIDTH 6 0
BBX 6 8 0 0
BITMAP
60
20
20
4c
50
70
50
8c
ENDCHAR
STARTCHAR l
ENCODING 108
SWIDTH 275 0
DWIDTH 3 0
BBX 2 8 0 0
BITMAP
c0
40
40
40
80
80
80
c0
ENDCHAR
STARTCHAR m
ENCODING 109
SWIDTH 815 0
DWIDTH 9 0
BBX 9 5 0 0
BITMAP
db00
6d00
4900
8a00
9380
ENDCHAR
STARTCHAR n
ENCODING 110
SWIDTH 556 0
DWIDTH 6 0
BBX 6 5 0 0
BITMAP
d8
68
48
90
9c
ENDCHAR
STARTCHAR o
ENCODING 111
SWIDTH 502 0
DWIDTH 6 0
BBX 5 5 0 0
BITMAP
30
48
88
90
60
ENDCHAR
STARTCHAR p
ENCODING 112
SWIDTH 516 0
DWIDTH 5 0
BBX 6 8 -1 -3
BITMAP
7c
24
44
48
70
40
40
e0
ENDCHAR
STARTCHAR q
ENCODING 113
SWIDTH 512 0
DWIDTH 6 0
BBX 5 8 0 -3
BITMAP
38
48
88
90
70
10
10
38
ENDCHAR
STARTCHAR r
ENCODING 114
SWIDTH 398 0
DWIDTH 4 0
BBX 4 5 0 0
BITMAP
f0
50
40
80
80
ENDCHAR
STARTCHAR s
ENCODING 115
SWIDTH 370 0
DWIDTH 4 0
BBX 4 5 0 0
BITMAP
30
40
20
90
60
ENDCHAR
STARTCHAR t
ENCODING 116
SWIDTH 333 0
DWIDTH 4 0
BBX 3 6 1 0
BITMAP
40
e0
80
80
80
c0
ENDCHAR
STARTCHAR u
ENCODING 117
SWIDTH 553 0
DWIDTH 6 0
BBX 5 5 0 0
BITMAP
c8
48
90
90
f8
ENDCHAR
STARTCHAR v
ENCODING 118
SWIDTH 454 0
DWIDTH 5 0
BBX 5 5 0 0
BITMAP
c8
48
50
50
60
ENDCHAR
STARTCHAR w
ENCODING 119
SWIDTH 713 0
DWIDTH 8 0
BBX 8 5 0 0
BITMAP
c900
4900
5a00
6a00
4c00
ENDCHAR
STARTCHAR x
ENCODING 120
SWIDTH 477 0
DWIDTH 5 0
BBX 6 5 -1 0
BITMAP
6c
30
30
50
d8
ENDCHAR
STARTCHAR y
ENCODING 121
SWIDTH 475 0
DWIDTH 6 0
BBX 7 8 -1 -3
BITMAP
62
24
14
18
10
10
a0
c0
ENDCHAR
STARTCHAR z
ENCODING 122
SWIDTH 440 0
DWIDTH 5 0
BBX 5 5 0 0
BITMAP
78
50
20
58
f0
ENDCHAR
STARTCHAR braceleft
ENCODING 123
SWIDTH 486 0
DWIDTH 5 0
BBX 4 9 0 -2
BITMAP
10
20
20
20
c0
20
20
20
10
ENDCHAR
STARTCHAR bar
ENCODING 124
SWIDTH 500 0
DWIDTH 6 0
BBX 1 11 3 -3
BITMAP
80
80
80
80
80
80
80
80
80
80
80
ENDCHAR
STARTCHAR braceright
ENCODING 125
SWIDTH 486 0
DWIDTH 5 0
BBX 4 9 0 -2
BITMAP
80
40
40
40
30
40
40
40
80
ENDCHAR
STARTCHAR c0126
ENCODING 126
SWIDTH 1000 0
DWIDTH 11 0
BBX 7 2 2 5
BITMAP
72
9c
ENDCHAR
STARTCHAR space
ENCODING 160
SWIDTH 278 0
DWIDTH 3 0
BBX 1 1 0 0
BITMAP
00
ENDCHAR
STARTCHAR exclamdown
ENCODING 161
SWIDTH 338 0
DWIDTH 4 0
BBX 3 8 1 0
BITMAP
60
00
40
40
40
40
c0
80
ENDCHAR
STARTCHAR cent
ENCODING 162
SWIDTH 556 0
DWIDTH 6 0
BBX 5 7 0 -1
BITMAP
10
38
68
a0
b0
70
20
ENDCHAR
STARTCHAR sterling
ENCODING 163
SWIDTH 556 0
DWIDTH 6 0
BBX 6 8 0 0
BITMAP
0c
14
20
20
78
40
40
f8
ENDCHAR
STARTCHAR currency
ENCODING 164
SWIDTH 606 0
DWIDTH 7 0
BBX 7 7 0 0
BITMAP
82
54
28
44
2c
54
82
ENDCHAR
STARTCHAR yen
ENCODING 165
SWIDTH 556 0
DWIDTH 6 0
BBX 7 8 0 0
BITMAP
66
44
28
ec
30
fc
20
70
ENDCHAR
STARTCHAR brokenbar
ENCODING 166
SWIDTH 500 0
DWIDTH 6 0
BBX 1 9 3 -2
BITMAP
80
80
80
80
00
80
80
80
80
ENDCHAR
STARTCHAR section
ENCODING 167
SWIDTH 500 0
DWIDTH 6 0
BBX 6 10 0 -2
BITMAP
3c
44
40
70
88
88
70
10
90
e0
ENDCHAR
STARTCHAR dieresis
ENCODING 168
SWIDTH 500 0
DWIDTH 6 0
BBX 3 1 2 6
BITMAP
a0
ENDCHAR
STARTCHAR copyright
ENCODING 169
SWIDTH 900 0
DWIDTH 10 0
BBX 9 8 1 0
BITMAP
1c00
2200
5d00
a480
a480
5d00
2200
1c00
ENDCHAR
STARTCHAR ordfeminine
ENCODING 170
SWIDTH 394 0
DWIDTH 4 0
BBX 4 4 0 4
BITMAP
30
d0
a0
50
ENDCHAR
STARTCHAR guillemotleft
ENCODING 171
SWIDTH 442 0
DWIDTH 5 0
BBX 5 4 0 0
BITMAP
28
d0
b0
50
ENDCHAR
STARTCHAR logicalnot
ENCODING 172
SWIDTH 833 0
DWIDTH 9 0
BBX 6 3 2 2
BITMAP
fc
04
04
ENDCHAR
STARTCHAR hyphen
ENCODING 173
SWIDTH 319 0
DWIDTH 4 0
BBX 3 1 0 2
BITMAP
e0
ENDCHAR
STARTCHAR registered
ENCODING 174
SWIDTH 900 0
DWIDTH 10 0
BBX 9 8 1 0
BITMAP
1c00
2200
7900
9480
9880
7700
2200
1c00
ENDCHAR
STARTCHAR macron
ENCODING 175
SWIDTH 500 0
DWIDTH 6 0
BBX 4 1 2 6
BITMAP
f0
ENDCHAR
STARTCHAR degree
ENCODING 176
SWIDTH 329 0
DWIDTH 4 0
BBX 3 3 1 4
BITMAP
40
a0
40
ENDCHAR
STARTCHAR plusminus
ENCODING 177
SWIDTH 833 0
DWIDTH 9 0
BBX 7 7 1 -1
BITMAP
10
10
fe
10
10
00
fe
ENDCHAR
STARTCHAR twosuperior
ENCODING 178
SWIDTH 367 0
DWIDTH 4 0
BBX 4 5 0 3
BITMAP
20
50
30
50
e0
ENDCHAR
STARTCHAR threesuperior
ENCODING 179
SWIDTH 367 0
DWIDTH 4 0
BBX 4 5 0 3
BITMAP
60
30
60
10
e0
ENDCHAR
STARTCHAR acute
ENCODING 180
SWIDTH 500 0
DWIDTH 6 0
BBX 3 2 3 6
BITMAP
60
80
ENDCHAR
STARTCHAR mu
ENCODING 181
SWIDTH 548 0
DWIDTH 6 0
BBX 6 8 0 -3
BITMAP
48
48
48
54
a8
80
80
80
ENDCHAR
STARTCHAR paragraph
ENCODING 182
SWIDTH 484 0
DWIDTH 5 0
BBX 5 9 0 -1
BITMAP
78
d0
d0
d0
50
10
10
10
10
ENDCHAR
STARTCHAR periodcentered
ENCODING 183
SWIDTH 278 0
DWIDTH 3 0
BBX 1 1 1 3
BITMAP
80
ENDCHAR
STARTCHAR cedilla
ENCODING 184
SWIDTH 500 0
DWIDTH 6 0
BBX 3 3 1 -3
BITMAP
60
20
c0
ENDCHAR
STARTCHAR onesuperior
ENCODING 185
SWIDTH 367 0
DWIDTH 4 0
BBX 2 5 1 3
BITMAP
40
c0
40
40
c0
ENDCHAR
STARTCHAR ordmasculine
ENCODING 186
SWIDTH 377 0
DWIDTH 4 0
BBX 4 4 0 4
BITMAP
60
90
90
60
ENDCHAR
STARTCHAR guillemotright
ENCODING 187
SWIDTH 442 0
DWIDTH 5 0
BBX 4 4 0 0
BITMAP
a0
50
50
a0
ENDCHAR
STARTCHAR onequarter
ENCODING 188
SWIDTH 867 0
DWIDTH 10 0
BBX 10 8 0 0
BITMAP
4100
c200
4400
48c0
c980
1280
23c0
4080
ENDCHAR
STARTCHAR onehalf
ENCODING 189
SWIDTH 867 0
DWIDTH 10 0
BBX 10 8 0 0
BITMAP
4100
c200
4400
4880
c940
10c0
2140
4380
ENDCHAR
STARTCHAR threequarters
ENCODING 190
SWIDTH 867 0
DWIDTH 10 0
BBX 10 8 0 0
BITMAP
6100
3200
6400
18c0
e980
1280
23c0
4080
ENDCHAR
STARTCHAR questiondown
ENCODING 191
SWIDTH 486 0
DWIDTH 5 0
BBX 4 8 0 0
BITMAP
10
00
10
20
40
80
90
60
ENDCHAR
STARTCHAR Agrave
ENCODING 192
SWIDTH 606 0
DWIDTH 7 0
BBX 8 11 -1 0
BITMAP
0800
0400
0000
0400
0c00
1400
1200
3e00
2200
4200
c700
ENDCHAR
STARTCHAR Aacute
ENCODING 193
SWIDTH 606 0
DWIDTH 7 0
BBX 8 11 -1 0
BITMAP
0300
0400
0000
0400
0c00
1400
1200
3e00
2200
4200
c700
ENDCHAR
STARTCHAR Acircumflex
ENCODING 194
SWIDTH 606 0
DWIDTH 7 0
BBX 8 11 -1 0
BITMAP
0400
0a00
0000
0400
0c00
1400
1200
3e00
2200
4200
c700
ENDCHAR
STARTCHAR Atilde
ENCODING 195
SWIDTH 606 0
DWIDTH 7 0
BBX 8 10 -1 0
BITMAP
0f00
0000
0400
0c00
1400
1200
3e00
2200
4200
c700
ENDCHAR
STARTCHAR Adieresis
ENCODING 196
SWIDTH 606 0
DWIDTH 7 0
BBX 8 10 -1 0
BITMAP
0a00
0000
0400
0c00
1400
1200
3e00
2200
4200
c700
ENDCHAR
STARTCHAR Aring
ENCODING 197
SWIDTH 606 0
DWIDTH 7 0
BBX 8 10 -1 0
BITMAP
0e00
0000
0400
0c00
1400
1200
3e00
2200
4200
c700
ENDCHAR
STARTCHAR AE
ENCODING 198
SWIDTH 873 0
DWIDTH 10 0
BBX 11 8 -1 0
BITMAP
07e0
0520
0a40
13c0
1e40
2200
4240
c7c0
ENDCHAR
STARTCHAR Ccedilla
ENCODING 199
SWIDTH 604 0
DWIDTH 7 0
BBX 7 11 0 -3
BITMAP
1e
22
40
80
80
80
44
38
18
08
30
ENDCHAR
STARTCHAR Egrave
ENCODING 200
SWIDTH 546 0
DWIDTH 6 0
BBX 6 11 0 0
BITMAP
10
08
00
7c
24
28
38
48
40
48
f8
ENDCHAR
STARTCHAR Eacute
ENCODING 201
SWIDTH 546 0
DWIDTH 6 0
BBX 7 11 0 0
BITMAP
06
08
00
7c
24
28
38
48
40
48
f8
ENDCHAR
STARTCHAR Ecircumflex
ENCODING 202
SWIDTH 546 0
DWIDTH 6 0
BBX 6 11 0 0
BITMAP
08
14
00
7c
24
28
38
48
40
48
f8
ENDCHAR
STARTCHAR Edieresis
ENCODING 203
SWIDTH 546 0
DWIDTH 6 0
BBX 6 10 0 0
BITMAP
14
00
7c
24
28
38
48
40
48
f8
ENDCHAR
STARTCHAR Igrave
ENCODING 204
SWIDTH 313 0
DWIDTH 4 0
BBX 4 11 0 0
BITMAP
40
20
00
70
20
20
20
40
40
40
e0
ENDCHAR
STARTCHAR Iacute
ENCODING 205
SWIDTH 313 0
DWIDTH 4 0
BBX 5 11 0 0
BITMAP
18
20
00
70
20
20
20
40
40
40
e0
ENDCHAR
STARTCHAR Icircumflex
ENCODING 206
SWIDTH 313 0
DWIDTH 4 0
BBX 4 11 0 0
BITMAP
20
50
00
70
20
20
20
40
40
40
e0
ENDCHAR
STARTCHAR Idieresis
ENCODING 207
SWIDTH 313 0
DWIDTH 4 0
BBX 4 10 0 0
BITMAP
50
00
70
20
20
20
40
40
40
e0
ENDCHAR
STARTCHAR Eth
ENCODING 208
SWIDTH 671 0
DWIDTH 8 0
BBX 7 8 0 0
BITMAP
78
26
22
72
42
44
48
f0
ENDCHAR
STARTCHAR Ntilde
ENCODING 209
SWIDTH 683 0
DWIDTH 7 0
BBX 8 10 0 0
BITMAP
1e00
0000
6300
2200
3200
5200
4a00
4a00
4400
c400
ENDCHAR
STARTCHAR Ograve
ENCODING 210
SWIDTH 708 0
DWIDTH 8 0
BBX 8 11 0 0
BITMAP
1000
0800
0000
1c00
2200
4100
8100
8100
8200
4400
3800
ENDCHAR
STARTCHAR Oacute
ENCODING 211
SWIDTH 708 0
DWIDTH 8 0
BBX 8 11 0 0
BITMAP
0600
0800
0000
1c00
2200
4100
8100
8100
8200
4400
3800
ENDCHAR
STARTCHAR Ocircumflex
ENCODING 212
SWIDTH 708 0
DWIDTH 8 0
BBX 8 11 0 0
BITMAP
0800
1400
0000
1c00
2200
4100
8100
8100
8200
4400
3800
ENDCHAR
STARTCHAR Otilde
ENCODING 213
SWIDTH 708 0
DWIDTH 8 0
BBX 8 10 0 0
BITMAP
1e00
0000
1c00
2200
4100
8100
8100
8200
4400
3800
ENDCHAR
STARTCHAR Odieresis
ENCODING 214
SWIDTH 708 0
DWIDTH 8 0
BBX 8 10 0 0
BITMAP
1400
0000
1c00
2200
4100
8100
8100
8200
4400
3800
ENDCHAR
STARTCHAR multiply
ENCODING 215
SWIDTH 833 0
DWIDTH 9 0
BBX 6 6 2 0
BITMAP
84
48
30
30
48
84
ENDCHAR
STARTCHAR Oslash
ENCODING 216
SWIDTH 708 0
DWIDTH 8 0
BBX 8 9 0 -1
BITMAP
1e00
2200
4500
8900
9100
a200
4400
7800
8000
ENDCHAR
STARTCHAR Ugrave
ENCODING 217
SWIDTH 664 0
DWIDTH 8 0
BBX 7 11 1 0
BITMAP
20
10
00
e6
44
44
84
84
88
88
70
ENDCHAR
STARTCHAR Uacute
ENCODING 218
SWIDTH 664 0
DWIDTH 8 0
BBX 7 11 1 0
BITMAP
0c
10
00
e6
44
44
84
84
88
88
70
ENDCHAR
STARTCHAR Ucircumflex
ENCODING 219
SWIDTH 664 0
DWIDTH 8 0
BBX 7 11 1 0
BITMAP
10
28
00
e6
44
44
84
84
88
88
70
ENDCHAR
STARTCHAR Udieresis
ENCODING 220
SWIDTH 664 0
DWIDTH 8 0
BBX 7 10 1 0
BITMAP
28
00
e6
44
44
84
84
88
88
70
ENDCHAR
STARTCHAR Yacute
ENCODING 221
SWIDTH 563 0
DWIDTH 6 0
BBX 7 11 0 0
BITMAP
0c
10
00
ee
44
48
30
20
20
20
70
ENDCHAR
STARTCHAR Thorn
ENCODING 222
SWIDTH 532 0
DWIDTH 6 0
BBX 6 8 0 0
BITMAP
70
38
24
24
44
48
70
e0
ENDCHAR
STARTCHAR germandbls
ENCODING 223
SWIDTH 574 0
DWIDTH 7 0
BBX 7 11 -1 -3
BITMAP
0c
12
12
2c
28
26
32
2c
20
40
80
ENDCHAR
STARTCHAR agrave
ENCODING 224
SWIDTH 525 0
DWIDTH 6 0
BBX 5 8 0 0
BITMAP
20
10
00
38
48
88
90
78
ENDCHAR
STARTCHAR aacute
ENCODING 225
SWIDTH 525 0
DWIDTH 6 0
BBX 6 8 0 0
BITMAP
0c
10
00
38
48
88
90
78
ENDCHAR
STARTCHAR acircumflex
ENCODING 226
SWIDTH 525 0
DWIDTH 6 0
BBX 5 8 0 0
BITMAP
10
28
00
38
48
88
90
78
ENDCHAR
STARTCHAR atilde
ENCODING 227
SWIDTH 525 0
DWIDTH 6 0
BBX 6 7 0 0
BITMAP
3c
00
38
48
88
90
78
ENDCHAR
STARTCHAR adieresis
ENCODING 228
SWIDTH 525 0
DWIDTH 6 0
BBX 5 7 0 0
BITMAP
28
00
38
48
88
90
78
ENDCHAR
STARTCHAR aring
ENCODING 229
SWIDTH 525 0
DWIDTH 6 0
BBX 5 8 0 0
BITMAP
38
38
00
38
48
88
90
78
ENDCHAR
STARTCHAR ae
ENCODING 230
SWIDTH 671 0
DWIDTH 7 0
BBX 7 5 0 0
BITMAP
34
5a
7c
92
ec
ENDCHAR
STARTCHAR ccedilla
ENCODING 231
SWIDTH 394 0
DWIDTH 4 0
BBX 4 8 0 -3
BITMAP
30
50
80
90
60
60
20
c0
ENDCHAR
STARTCHAR egrave
ENCODING 232
SWIDTH 424 0
DWIDTH 5 0
BBX 4 8 0 0
BITMAP
20
10
00
20
70
c0
90
60
ENDCHAR
STARTCHAR eacute
ENCODING 233
SWIDTH 424 0
DWIDTH 5 0
BBX 6 8 0 0
BITMAP
0c
10
00
20
70
c0
90
60
ENDCHAR
STARTCHAR ecircumflex
ENCODING 234
SWIDTH 424 0
DWIDTH 5 0
BBX 5 8 0 0
BITMAP
10
28
00
20
70
c0
90
60
ENDCHAR
STARTCHAR edieresis
ENCODING 235
SWIDTH 424 0
DWIDTH 5 0
BBX 5 7 0 0
BITMAP
28
00
20
70
c0
90
60
ENDCHAR
STARTCHAR igrave
ENCODING 236
SWIDTH 287 0
DWIDTH 3 0
BBX 3 8 0 0
BITMAP
40
20
00
c0
40
80
80
e0
ENDCHAR
STARTCHAR iacute
ENCODING 237
SWIDTH 287 0
DWIDTH 3 0
BBX 5 8 0 0
BITMAP
18
20
00
c0
40
80
80
e0
ENDCHAR
STARTCHAR icircumflex
ENCODING 238
SWIDTH 287 0
DWIDTH 3 0
BBX 4 8 0 0
BITMAP
20
50
00
c0
40
80
80
e0
ENDCHAR
STARTCHAR idieresis
ENCODING 239
SWIDTH 287 0
DWIDTH 3 0
BBX 4 7 0 0
BITMAP
50
00
c0
40
80
80
e0
ENDCHAR
STARTCHAR eth
ENCODING 240
SWIDTH 500 0
DWIDTH 6 0
BBX 5 8 0 0
BITMAP
28
30
50
38
48
88
90
60
ENDCHAR
STARTCHAR ntilde
ENCODING 241
SWIDTH 556 0
DWIDTH 6 0
BBX 6 7 0 0
BITMAP
3c
00
d8
68
48
90
9c
ENDCHAR
STARTCHAR ograve
ENCODING 242
SWIDTH 502 0
DWIDTH 6 0
BBX 5 8 0 0
BITMAP
20
10
00
30
48
88
90
60
ENDCHAR
STARTCHAR oacute
ENCODING 243
SWIDTH 502 0
DWIDTH 6 0
BBX 6 8 0 0
BITMAP
0c
10
00
30
48
88
90
60
ENDCHAR
STARTCHAR ocircumflex
ENCODING 244
SWIDTH 502 0
DWIDTH 6 0
BBX 5 8 0 0
BITMAP
10
28
00
30
48
88
90
60
ENDCHAR
STARTCHAR otilde
ENCODING 245
SWIDTH 502 0
DWIDTH 6 0
BBX 6 7 0 0
BITMAP
3c
00
30
48
88
90
60
ENDCHAR
STARTCHAR odieresis
ENCODING 246
SWIDTH 502 0
DWIDTH 6 0
BBX 5 7 0 0
BITMAP
28
00
30
48
88
90
60
ENDCHAR
STARTCHAR divide
ENCODING 247
SWIDTH 833 0
DWIDTH 9 0
BBX 7 5 1 0
BITMAP
10
00
fe
00
10
ENDCHAR
STARTCHAR oslash
ENCODING 248
SWIDTH 502 0
DWIDTH 6 0
BBX 5 7 0 -1
BITMAP
08
30
58
a8
d0
60
80
ENDCHAR
STARTCHAR ugrave
ENCODING 249
SWIDTH 553 0
DWIDTH 6 0
BBX 5 8 0 0
BITMAP
20
10
00
c8
48
90
90
f8
ENDCHAR
STARTCHAR uacute
ENCODING 250
SWIDTH 553 0
DWIDTH 6 0
BBX 6 8 0 0
BITMAP
0c
10
00
c8
48
90
90
f8
ENDCHAR
STARTCHAR ucircumflex
ENCODING 251
SWIDTH 553 0
DWIDTH 6 0
BBX 5 8 0 0
BITMAP
10
28
00
c8
48
90
90
f8
ENDCHAR
STARTCHAR udieresis
ENCODING 252
SWIDTH 553 0
DWIDTH 6 0
BBX 5 7 0 0
BITMAP
28
00
c8
48
90
90
f8
ENDCHAR
STARTCHAR yacute
ENCODING 253
SWIDTH 475 0
DWIDTH 6 0
BBX 7 11 -1 -3
BITMAP
06
08
00
62
24
14
18
10
10
a0
c0
ENDCHAR
STARTCHAR thorn
ENCODING 254
SWIDTH 516 0
DWIDTH 5 0
BBX 6 11 -1 -3
BITMAP
60
20
20
38
24
44
48
70
40
40
e0
ENDCHAR
STARTCHAR ydieresis
ENCODING 255
SWIDTH 475 0
DWIDTH 6 0
BBX 7 10 -1 -3
BITMAP
14
00
62
24
14
18
10
10
a0
c0
ENDCHAR
ENDFONT
